. 
  
http://www.torrenting.com/        :     Greatest Movie Tracker on The Net!!!
 
http://www.Torrenting.com          :     Once & For all ;)


               www . Torrenting . Com 

(((((((((((((= Enjoy No RAR releases =))))))))))))))))))))


...................................NFO:....................................

.[img]http://img713.imageshack.us/img713/1931/grit.jpg[/img]

[color=blue][size=5][b]True.Grit.2011.BDRip.XVID.AC3.HQ.Hive-CM8[/b][/size][/color]


[b]Thx Hive


CM8 Doing It Right The First Time :D


Source Bluray

Video: 720x304 @bitrate 1700 2pass
Audio: DTS to AC3 5.1 @448
Sample: yes included
Subs: yes english in srt /subs[/b]


[url]http://www.imdb.com/title/tt1403865/[/url]


General
Complete name                    : True.Grit.2011.BDRip.XVID.AC3.HQ.Hive-CM8.avi
Format                           : AVI
Format/Info                      : Audio Video Interleave
File size                        : 1.66 GiB
Duration                         : 1h 50mn
Overall bit rate                 : 2 157 Kbps
Writing application              : Nandub v1.0rc2
Writing library                  : Nandub build 1853/release

Video
ID                               : 0
Format                           : MPEG-4 Visual
Format profile                   : Advanced Simple@L5
Format settings, BVOP            : 2
Format settings, QPel            : Yes
Format settings, GMC             : No warppoints
Format settings, Matrix          : Default (H.263)
Muxing mode                      : Packed bitstream
Codec ID                         : XVID
Codec ID/Hint                    : XviD
Duration                         : 1h 50mn
Bit rate                         : 1 700 Kbps
Width                            : 720 pixels
Height                           : 304 pixels
Display aspect ratio             : 2.35:1
Frame rate                       : 23.976 fps
Color space                      : YUV
Chroma subsampling               : 4:2:0
Bit depth                        : 8 bits
Scan type                        : Progressive
Compression mode                 : Lossy
Bits/(Pixel*Frame)               : 0.324
Stream size                      : 1.31 GiB (79%)
Writing library                  : XviD 1.2.1 (UTC 2008-12-04)

Audio
ID                               : 1
Format                           : AC-3
Format/Info                      : Audio Coding 3
Mode extension                   : CM (complete main)
Codec ID                         : 2000
Duration                         : 1h 50mn
Bit rate mode                    : Constant
Bit rate                         : 448 Kbps
Channel(s)                       : 6 channels
Channel positions                : Front: L C R, Side: L R, LFE
Sampling rate                    : 48.0 KHz
Bit depth                        : 16 bits
Compression mode                 : Lossy
Stream size                      : 354 MiB (21%)
Alignment                        : Split accross interleaves
Interleave, duration             : 42 ms (1.00 video frame)
Interleave, preload duration     : 500 ms


Jeff Bridges	 ... 	Rooster Cogburn
Hailee Steinfeld	... 	Mattie Ross
Matt Damon	... 	LaBoeuf
Josh Brolin	... 	Tom Chaney
Barry Pepper	... 	Lucky Ned Pepper


Following the murder of her father by hired hand Tom Chaney, 14-year-old farm girl Mattie Ross 
sets out to capture the killer. To aid her, she hires the toughest U.S. marshal she can find, 
a man with "true grit," Reuben J. "Rooster" Cogburn. Mattie insists on accompanying Cogburn, 
whose drinking, sloth, and generally reprobate character do not augment her faith in him. 
Against his wishes, she joins him in his trek into the Indian Nations in search of Chaney. 
They are joined by Texas Ranger LaBoeuf, who wants Chaney for his own purposes. 
The unlikely trio find danger and surprises on the journey, and each has his or her "grit" tested.  
  

[img]http://img820.imageshack.us/img820/3415/31311680.png[/img]
[img]http://img215.imageshack.us/img215/6171/trtru.png[/img]
[img]http://img718.imageshack.us/img718/8674/trtrtrz.png[/img]
[img]http://img5.imageshack.us/img5/9581/trtrttrr.png[/img]
[img]http://img849.imageshack.us/img849/7094/trtrttrtrr.png[/img]
[img]http://img837.imageshack.us/img837/1585/trtrttrttrrr.png[/img]
[img]http://img861.imageshack.us/img861/402/trtrttrttrtrrr.png[/img]






Greetz

ViSiON,SANTi,MAGNET,THC,T0XiC,iNK,LKRG,IMAGiNE,WBZ,FLAWL3SS,NOVA
Vik,OneTwo,Rapeseed,D2U,SAFC,goldadvance,MEMORY100,KaN1vE,Unevano,Pinnz,Wayne,Mr Hive
and all P2P groups 
Great Work Guys :D

FYS

CM8@hushmail.com